<svg xmlns="http://www.w3.org/2000/svg" xmlns:xlink="http://www.w3.org/1999/xlink" width="375" viewBox="0 0 375 375" height="375" version="1.0"><defs><g id="a"><path d="M 22.03125 -20.546875 L 9.796875 -20.546875 L 9.796875 -16.84375 L 21.046875 -16.84375 L 21.046875 -10.328125 L 9.796875 -10.328125 L 9.796875 -6.515625 L 22.34375 -6.515625 L 21.890625 0 L 2.28125 0 L 2.28125 -27.0625 L 22.03125 -27.0625 Z M 22.03125 -20.546875"/></g><g id="b"><path d="M 27.140625 -5.375 C 25.972656 -3.519531 24.375 -2.085938 22.34375 -1.078125 C 20.3125 -0.078125 18.050781 0.421875 15.5625 0.421875 C 12.507812 0.421875 9.894531 -0.109375 7.71875 -1.171875 C 5.539062 -2.242188 3.878906 -3.785156 2.734375 -5.796875 C 1.597656 -7.804688 1.03125 -10.195312 1.03125 -12.96875 C 1.03125 -15.882812 1.65625 -18.421875 2.90625 -20.578125 C 4.164062 -22.742188 5.925781 -24.429688 8.1875 -25.640625 C 10.457031 -26.847656 13.09375 -27.453125 16.09375 -27.453125 C 18.726562 -27.453125 20.945312 -26.988281 22.75 -26.0625 C 24.5625 -25.132812 26.039062 -23.703125 27.1875 -21.765625 L 21.421875 -17.6875 C 20.941406 -18.625 20.191406 -19.363281 19.171875 -19.90625 C 18.160156 -20.457031 17.046875 -20.734375 15.828125 -20.734375 C 13.585938 -20.765625 11.847656 -20.070312 10.609375 -18.65625 C 9.378906 -17.25 8.765625 -15.414062 8.765625 -13.15625 C 8.765625 -10.988281 9.328125 -9.300781 10.453125 -8.09375 C 11.585938 -6.894531 13.300781 -6.296875 15.59375 -6.296875 C 18.238281 -6.296875 20.222656 -7.4375 21.546875 -9.71875 Z M 27.140625 -5.375"/></g><g id="c"><path d="M -1.484375 0 L 10.453125 -27.0625 L 16.78125 -27.0625 L 28.28125 0 L 20.59375 0 L 18.6875 -4.84375 L 8.203125 -4.84375 L 6.21875 0 Z M 10.796875 -11.125 L 16.171875 -11.125 L 13.53125 -17.765625 Z M 10.796875 -11.125"/></g><g id="d"><path d="M 11.40625 0.375 C 8 0.375 5.34375 -0.347656 3.4375 -1.796875 C 1.53125 -3.242188 0.445312 -5.351562 0.1875 -8.125 L 7.25 -9.15625 C 7.289062 -8.1875 7.710938 -7.398438 8.515625 -6.796875 C 9.316406 -6.203125 10.351562 -5.90625 11.625 -5.90625 C 13.96875 -5.90625 15.140625 -6.515625 15.140625 -7.734375 C 15.140625 -8.296875 14.8125 -8.75 14.15625 -9.09375 C 13.507812 -9.4375 12.453125 -9.785156 10.984375 -10.140625 C 7.828125 -10.898438 5.507812 -11.914062 4.03125 -13.1875 C 2.5625 -14.457031 1.84375 -16.25 1.875 -18.5625 C 1.894531 -20.320312 2.351562 -21.867188 3.25 -23.203125 C 4.15625 -24.535156 5.425781 -25.578125 7.0625 -26.328125 C 8.707031 -27.078125 10.632812 -27.453125 12.84375 -27.453125 C 15.5625 -27.453125 17.804688 -26.765625 19.578125 -25.390625 C 21.347656 -24.015625 22.359375 -22.144531 22.609375 -19.78125 L 15.9375 -18.640625 C 15.8125 -19.378906 15.421875 -19.984375 14.765625 -20.453125 C 14.117188 -20.921875 13.335938 -21.15625 12.421875 -21.15625 C 11.554688 -21.15625 10.863281 -20.984375 10.34375 -20.640625 C 9.820312 -20.296875 9.5625 -19.832031 9.5625 -19.25 C 9.5625 -18.71875 9.820312 -18.253906 10.34375 -17.859375 C 10.863281 -17.460938 11.851562 -17.085938 13.3125 -16.734375 C 15.394531 -16.222656 17.140625 -15.644531 18.546875 -15 C 19.953125 -14.351562 21.019531 -13.519531 21.75 -12.5 C 22.476562 -11.488281 22.84375 -10.15625 22.84375 -8.5 C 22.84375 -6.75 22.363281 -5.207031 21.40625 -3.875 C 20.457031 -2.539062 19.125 -1.5 17.40625 -0.75 C 15.6875 0 13.6875 0.375 11.40625 0.375 Z M 11.40625 0.375"/></g><g id="e"><path d="M 24.515625 -27.0625 L 23.40625 -20.4375 L 15.484375 -20.4375 L 15.484375 0 L 7.859375 0 L 7.859375 -20.4375 L -0.609375 -20.4375 L -0.609375 -27.0625 Z M 24.515625 -27.0625"/></g><g id="f"><path d="M 15.09375 0.375 C 12.175781 0.40625 9.660156 -0.109375 7.546875 -1.171875 C 5.441406 -2.242188 3.828125 -3.785156 2.703125 -5.796875 C 1.585938 -7.804688 1.03125 -10.21875 1.03125 -13.03125 C 1.03125 -15.9375 1.640625 -18.46875 2.859375 -20.625 C 4.078125 -22.78125 5.78125 -24.457031 7.96875 -25.65625 C 10.15625 -26.851562 12.707031 -27.453125 15.625 -27.453125 C 18.300781 -27.453125 20.632812 -26.890625 22.625 -25.765625 C 24.625 -24.648438 26.175781 -23.09375 27.28125 -21.09375 C 28.382812 -19.101562 28.9375 -16.757812 28.9375 -14.0625 C 28.9375 -11.21875 28.359375 -8.710938 27.203125 -6.546875 C 26.046875 -4.390625 24.425781 -2.703125 22.34375 -1.484375 C 20.257812 -0.265625 17.84375 0.351562 15.09375 0.375 Z M 14.90625 -6.296875 C 16.863281 -6.296875 18.414062 -6.988281 19.5625 -8.375 C 20.707031 -9.757812 21.28125 -11.609375 21.28125 -13.921875 C 21.28125 -16.003906 20.738281 -17.664062 19.65625 -18.90625 C 18.570312 -20.15625 17.128906 -20.78125 15.328125 -20.78125 C 14.003906 -20.78125 12.847656 -20.453125 11.859375 -19.796875 C 10.867188 -19.148438 10.097656 -18.257812 9.546875 -17.125 C 9.003906 -16 8.734375 -14.703125 8.734375 -13.234375 C 8.734375 -11.046875 9.28125 -9.34375 10.375 -8.125 C 11.46875 -6.90625 12.976562 -6.296875 14.90625 -6.296875 Z M 14.90625 -6.296875"/></g><g id="g"><path d="M 26.15625 -7.015625 L 27.90625 -1.140625 C 27.300781 -0.660156 26.488281 -0.273438 25.46875 0.015625 C 24.445312 0.304688 23.414062 0.453125 22.375 0.453125 C 20.375 0.453125 18.710938 0.0859375 17.390625 -0.640625 C 16.066406 -1.378906 15 -2.425781 14.1875 -3.78125 L 11.671875 -8 C 11.359375 -8.507812 11.0625 -8.890625 10.78125 -9.140625 C 10.507812 -9.398438 10.171875 -9.566406 9.765625 -9.640625 L 9.765625 0 L 2.28125 0 L 2.28125 -27.0625 L 11.4375 -27.0625 C 15.601562 -27.0625 18.679688 -26.273438 20.671875 -24.703125 C 22.671875 -23.128906 23.671875 -20.941406 23.671875 -18.140625 C 23.671875 -16.160156 23.097656 -14.515625 21.953125 -13.203125 C 20.816406 -11.898438 19.304688 -10.984375 17.421875 -10.453125 C 18.390625 -10.140625 19.148438 -9.566406 19.703125 -8.734375 L 20.390625 -7.703125 C 21.023438 -6.710938 22.003906 -6.21875 23.328125 -6.21875 C 23.816406 -6.21875 24.296875 -6.273438 24.765625 -6.390625 C 25.234375 -6.503906 25.695312 -6.710938 26.15625 -7.015625 Z M 11.359375 -20.9375 L 9.765625 -20.9375 L 9.765625 -15.5625 L 11.703125 -15.5625 C 13.359375 -15.5625 14.507812 -15.78125 15.15625 -16.21875 C 15.800781 -16.664062 16.125 -17.359375 16.125 -18.296875 C 16.125 -19.316406 15.6875 -20.007812 14.8125 -20.375 C 13.9375 -20.75 12.785156 -20.9375 11.359375 -20.9375 Z M 11.359375 -20.9375"/></g></defs><path fill="#FFF" d="M 84.375 84.375 L 290.625 84.375 L 290.625 290.625 L 84.375 290.625 Z M 84.375 84.375"/><path fill="#017EDC" d="M 94.578125 93.039062 L 94.578125 276.199219 L 277.738281 276.199219 L 277.738281 93.039062 Z M 263.660156 199.9375 L 144.941406 199.890625 L 144.941406 231.835938 L 263.660156 231.835938 L 263.660156 262.472656 L 108.273438 262.472656 L 108.273438 169.261719 L 263.660156 169.300781 Z M 263.660156 137.402344 L 108.273438 137.316406 L 108.273438 106.765625 L 263.660156 106.765625 Z M 263.660156 137.402344"/><g fill="#322C4D"><use x="32.589" y="334.469" xmlns:xlink="http://www.w3.org/1999/xlink" xlink:href="#a" xlink:type="simple" xlink:actuate="onLoad" xlink:show="embed"/></g><g fill="#322C4D"><use x="70.528" y="334.469" xmlns:xlink="http://www.w3.org/1999/xlink" xlink:href="#b" xlink:type="simple" xlink:actuate="onLoad" xlink:show="embed"/></g><g fill="#322C4D"><use x="112.203" y="334.469" xmlns:xlink="http://www.w3.org/1999/xlink" xlink:href="#c" xlink:type="simple" xlink:actuate="onLoad" xlink:show="embed"/></g><g fill="#322C4D"><use x="154.413" y="334.469" xmlns:xlink="http://www.w3.org/1999/xlink" xlink:href="#d" xlink:type="simple" xlink:actuate="onLoad" xlink:show="embed"/></g><g fill="#322C4D"><use x="193.038" y="334.469" xmlns:xlink="http://www.w3.org/1999/xlink" xlink:href="#e" xlink:type="simple" xlink:actuate="onLoad" xlink:show="embed"/></g><g fill="#322C4D"><use x="231.587" y="334.469" xmlns:xlink="http://www.w3.org/1999/xlink" xlink:href="#f" xlink:type="simple" xlink:actuate="onLoad" xlink:show="embed"/></g><g fill="#322C4D"><use x="276.808" y="334.469" xmlns:xlink="http://www.w3.org/1999/xlink" xlink:href="#g" xlink:type="simple" xlink:actuate="onLoad" xlink:show="embed"/></g><g fill="#322C4D"><use x="318.217" y="334.469" xmlns:xlink="http://www.w3.org/1999/xlink" xlink:href="#a" xlink:type="simple" xlink:actuate="onLoad" xlink:show="embed"/></g></svg>